<svg width="76" height="76" viewBox="0 0 76 76" fill="none" xmlns="http://www.w3.org/2000/svg">
<path d="M33.8252 14.8034C33.8252 14.8034 33.9159 15.0187 34.054 15.3896C34.0163 15.1796 33.9743 14.9714 33.925 14.7626C33.8921 14.775 33.8599 14.7892 33.8252 14.8034Z" fill="#75B338"/>
<path d="M33.8252 14.8034C33.8252 14.8034 33.9159 15.0187 34.054 15.3896C34.0163 15.1796 33.9743 14.9714 33.925 14.7626C33.8921 14.775 33.8599 14.7892 33.8252 14.8034Z" fill="#75B338"/>
<path d="M33.8252 14.8034C33.8252 14.8034 33.9159 15.0187 34.054 15.3896C34.0163 15.1796 33.9743 14.9714 33.925 14.7626C33.8921 14.775 33.8599 14.7892 33.8252 14.8034Z" fill="#75B338"/>
<path d="M66.7473 8.38089C65.6871 8.86948 64.7797 9.64164 64.1234 10.6137C63.467 11.5857 63.0867 12.7205 63.0237 13.8951L63.0183 13.897C62.1531 13.2794 61.1489 12.8893 60.0968 12.7621C59.0446 12.6349 57.9776 12.7745 56.9923 13.1684C57.0727 13.4374 57.1703 13.7009 57.2845 13.9572C57.6581 14.7873 58.2026 15.5275 58.8816 16.1288C59.5607 16.73 60.3588 17.1784 61.2228 17.4441C60.2637 18.9457 58.9995 20.2245 57.5139 21.1958C56.8676 21.6151 56.1266 21.8624 55.36 21.9146C54.3946 22.0301 53.4171 21.8504 52.5541 21.3988C51.691 20.9473 50.9821 20.2445 50.5191 19.3817C49.9364 20.4342 48.9894 21.2326 47.8595 21.6238C46.7297 22.015 45.4965 21.9715 44.3964 21.5017C44.1037 21.3297 43.8152 21.1479 43.5389 20.9519C41.1789 19.2951 39.4595 16.8652 38.6724 14.0745C38.7083 14.0727 38.743 14.069 38.7795 14.0653C39.758 13.9554 40.6978 13.6179 41.5252 13.0794C42.3527 12.5409 43.045 11.816 43.548 10.9617C43.6578 10.7777 43.7579 10.588 43.8481 10.3934C43.0538 9.79901 42.1333 9.3995 41.1595 9.22654C40.1857 9.05359 39.1854 9.11195 38.2378 9.397C38.0431 9.45596 37.8489 9.52538 37.6578 9.60279C37.7235 7.34451 36.0444 3.94727 33.9854 2.71125C33.7229 2.55986 33.4522 2.42327 33.1747 2.30212L32.9934 2.22656L32.868 2.38813C32.7061 2.60004 32.5573 2.82181 32.4225 3.05219C31.2083 5.13783 31.543 8.88152 32.6787 10.8296C32.4754 10.8536 32.2715 10.8886 32.0719 10.9322C31.2113 11.1201 30.3986 11.4864 29.6854 12.0077C28.9722 12.529 28.3739 13.1941 27.9285 13.9608C27.8205 14.1464 27.7221 14.3375 27.6339 14.5334C27.8059 14.6599 27.9843 14.7774 28.1683 14.8854C29.0162 15.3896 29.9685 15.6882 30.9502 15.7576C31.9319 15.827 32.9161 15.6653 33.8254 15.2853C33.86 15.2706 33.8929 15.2577 33.9251 15.2429C34.5162 17.8402 34.2726 20.56 33.2295 23.0081C33.2259 22.997 33.224 22.9841 33.2204 22.9731C33.2039 23.0351 33.182 23.0978 33.1637 23.1623C33.0932 23.3196 33.0201 23.4774 32.9441 23.6334C32.7602 24.0108 32.5571 24.3783 32.3354 24.7343C31.589 25.6816 30.5214 26.3162 29.3386 26.5156C28.1559 26.7151 26.9419 26.4652 25.931 25.8143C25.9276 26.7957 25.6323 27.7535 25.0835 28.5636C24.5346 29.3737 23.7574 29.9988 22.8526 30.3579C22.4214 30.5294 21.968 30.637 21.5063 30.6773C19.5025 30.643 17.5361 30.1235 15.7726 29.1624C16.4033 28.5096 16.889 27.7286 17.197 26.8714C17.505 26.0141 17.6284 25.1004 17.5588 24.1913C17.5369 23.9068 17.4955 23.384 17.4407 23.1143C15.24 23.3932 13.4227 25.3738 12.5067 26.4379H12.5012C11.2858 25.3738 9.05222 23.4755 6.60615 23.6629C6.04244 23.7538 5.49316 23.9196 4.97266 24.1562C7.70332 26.2253 10.3039 28.4637 12.7593 30.8586C14.4841 32.5265 16.1395 34.3056 17.7208 36.1271C19.9178 38.6637 23.6706 43.7872 23.6742 43.7853C24.6523 44.7038 25.9499 45.1957 27.2851 45.154C27.3671 45.1418 27.4423 45.1012 27.498 45.0393C27.5537 44.9774 27.5865 44.8979 27.5907 44.8143C27.6065 44.6804 27.3777 44.5999 27.2596 44.5465C26.8138 44.3848 26.4145 44.1143 26.0974 43.7591C25.7803 43.4038 25.5553 42.9749 25.4423 42.5106C24.7357 40.2763 31.3574 36.2426 41.0362 33.7625C50.7169 31.2843 58.4914 31.5854 58.9405 33.8909C59.0628 34.3531 59.0701 34.8387 58.9615 35.3044C58.853 35.7701 58.6321 36.2015 58.3185 36.5602C58.2406 36.6646 58.0769 36.8483 58.1591 36.9583C58.2023 37.0299 58.2688 37.0842 58.3472 37.112C58.4257 37.1398 58.5112 37.1393 58.5893 37.1106C59.7784 36.4994 60.6813 35.4404 61.1029 34.1625C61.1029 34.1625 62.1424 27.8121 62.8564 24.5212C63.3706 22.1548 63.9861 19.8204 64.7029 17.5179C65.7211 14.2421 66.9411 11.0337 68.3558 7.91159C67.8014 7.99542 67.2605 8.15323 66.7473 8.38089Z" fill="#75B338"/>
<path d="M32.5511 38.7106C37.7783 36.456 43.2837 34.9257 48.9174 34.1615C48.9174 34.1615 59.9066 35.2532 59.9066 48.2733C59.9066 61.2934 50.7311 68.7261 38.2411 68.7261C25.7528 68.7261 19.167 63.1695 19.167 57.2505C19.167 51.3308 23.3829 50.3878 25.3438 50.3878C27.303 50.3878 30.8482 52.1749 30.8482 56.8137C30.8482 56.8137 27.3194 55.9388 27.3194 59.0203C27.3194 62.1019 31.4915 64.021 37.2125 64.021C42.9316 64.021 51.0092 61.4912 51.0092 50.2194C51.0092 38.1933 45.4957 37.6558 41.6627 37.6558V58.285C41.6942 58.7924 41.9221 59.2669 42.2971 59.6063C42.6722 59.9457 43.1643 60.1227 43.6674 60.0991C43.6674 60.0991 41.6517 61.8162 36.6635 61.8162C31.6753 61.8162 30.2541 60.1999 30.2541 60.1999C30.2541 60.1999 32.615 60.2091 32.615 58.1068C32.615 56.0064 32.5511 38.7106 32.5511 38.7106Z" fill="#75B338"/>
</svg>
